<svg width="918" height="145" viewBox="0 0 918 145" fill="none" xmlns="http://www.w3.org/2000/svg">
<mask id="path-1-outside-1_9_5" maskUnits="userSpaceOnUse" x="0.0999756" y="0" width="918" height="145" fill="black">
<rect fill="white" x="0.0999756" width="918" height="145"/>
<path d="M4.09998 121.95C10.3 120.65 14.95 117.6 18.05 112.8C21.15 108.1 22.7 102 22.7 94.5V12.45C22.7 10.55 21.95 9.2 20.45 8.4C19.05 7.5 16.9 7.05 14 7.05H9.64998V3H50.6V7.05H46.1C40.3 7.05 37.4 8.85 37.4 12.45V94.65C37.4 104.45 34.45 111.95 28.55 117.15C22.65 122.45 14.7 125.1 4.69998 125.1L4.09998 121.95Z"/>
<path d="M134.918 104.1C136.318 104.1 138.118 103.7 140.318 102.9V105.45C137.218 108.15 132.968 109.5 127.568 109.5C124.568 109.5 122.118 108.7 120.218 107.1C118.418 105.4 117.518 102.95 117.518 99.75V96.75C115.318 100.35 111.918 103.4 107.318 105.9C102.818 108.3 97.7176 109.5 92.0176 109.5C83.7176 109.5 77.3676 107.7 72.9676 104.1C68.5676 100.4 66.3676 95.45 66.3676 89.25V49.05C66.3676 47.95 66.0676 47.15 65.4676 46.65C64.8676 46.15 64.1676 45.9 63.3676 45.9C62.3676 45.9 60.8676 46.3 58.8676 47.1L57.8176 43.8L76.5676 37.05H80.4676V87.45C80.4676 92.75 81.8176 96.75 84.5176 99.45C87.2176 102.15 91.0676 103.5 96.0676 103.5C99.5676 103.5 102.968 102.65 106.268 100.95C109.568 99.15 112.268 96.5 114.368 93C116.468 89.5 117.518 85.3 117.518 80.4V49.05C117.518 47.95 117.168 47.15 116.468 46.65C115.868 46.15 115.168 45.9 114.368 45.9C113.568 45.9 112.068 46.3 109.868 47.1L108.818 43.8L128.168 37.05H131.468V99.3C131.468 102.5 132.618 104.1 134.918 104.1Z"/>
<path d="M180.445 109.5C169.145 109.5 161.145 106.35 156.445 100.05L154.795 109.2H151.045V86.85H154.795C155.895 92.05 158.345 96.2 162.145 99.3C165.945 102.3 170.695 103.8 176.395 103.8C182.195 103.8 186.645 102.75 189.745 100.65C192.945 98.55 194.545 95.5 194.545 91.5C194.545 88.4 193.145 86 190.345 84.3C187.545 82.5 183.245 80.6 177.445 78.6C172.045 76.6 167.645 74.75 164.245 73.05C160.945 71.25 158.095 68.85 155.695 65.85C153.295 62.75 152.095 58.85 152.095 54.15C152.095 48.35 154.345 43.9 158.845 40.8C163.345 37.6 169.645 36 177.745 36C182.245 36 186.645 36.75 190.945 38.25C195.245 39.75 198.545 41.95 200.845 44.85L202.495 36H206.245V57.75H202.495C201.295 53.05 198.895 49.25 195.295 46.35C191.795 43.45 187.295 42 181.795 42C176.995 42 173.145 42.95 170.245 44.85C167.345 46.75 165.895 49.35 165.895 52.65C165.895 56.25 167.395 59.05 170.395 61.05C173.495 63.05 178.145 65.1 184.345 67.2C189.645 69.1 193.895 70.85 197.095 72.45C200.295 73.95 202.995 76.15 205.195 79.05C207.495 81.85 208.645 85.45 208.645 89.85C208.645 96.45 205.995 101.4 200.695 104.7C195.495 107.9 188.745 109.5 180.445 109.5Z"/>
<path d="M270.153 94.35C269.653 99.55 267.553 103.4 263.853 105.9C260.253 108.3 255.803 109.5 250.503 109.5C243.003 109.5 237.303 107.95 233.403 104.85C229.503 101.75 227.553 96.6 227.553 89.4V43.35H215.853V37.5H227.553V24.6L238.053 17.55H241.653V37.5H262.803V43.35H241.653V89.1C241.653 94.2 242.553 98 244.353 100.5C246.253 102.9 249.153 104.1 253.053 104.1C256.153 104.1 258.803 103.35 261.003 101.85C263.303 100.25 264.653 97.75 265.053 94.35H270.153Z"/>
<path d="M293.772 23.85C291.172 23.85 289.072 23.1 287.472 21.6C285.972 20 285.222 18 285.222 15.6C285.222 13.1 285.972 11.1 287.472 9.60001C289.072 8.10001 291.172 7.35001 293.772 7.35001C296.272 7.35001 298.272 8.10001 299.772 9.60001C301.372 11.1 302.172 13.1 302.172 15.6C302.172 18 301.372 20 299.772 21.6C298.272 23.1 296.272 23.85 293.772 23.85ZM277.122 104.25H279.972C282.372 104.25 284.272 103.85 285.672 103.05C287.172 102.25 287.922 101.05 287.922 99.45V48.9C287.922 46.7 286.872 45.6 284.772 45.6C284.272 45.6 283.522 45.8 282.522 46.2C281.522 46.5 280.822 46.7 280.422 46.8L279.372 43.35L298.272 36.75H302.022V99.45C302.022 101.05 302.722 102.25 304.122 103.05C305.622 103.85 307.572 104.25 309.972 104.25H312.822V108H277.122V104.25Z"/>
<path d="M407.018 104.25V108H372.068V104.25H374.468C376.768 104.25 378.618 103.85 380.018 103.05C381.418 102.25 382.118 101.05 382.118 99.45V58.2C382.118 52.9 380.768 48.9 378.068 46.2C375.368 43.5 371.518 42.15 366.518 42.15C363.018 42.15 359.618 43.05 356.318 44.85C353.118 46.55 350.468 49.15 348.368 52.65C346.268 56.15 345.218 60.35 345.218 65.25V99.45C345.218 101.05 345.918 102.25 347.318 103.05C348.818 103.85 350.718 104.25 353.018 104.25H355.268V108H320.318V104.25H323.168C325.568 104.25 327.468 103.85 328.868 103.05C330.368 102.25 331.118 101.05 331.118 99.45V49.05C331.118 46.95 330.068 45.9 327.968 45.9C327.068 45.9 325.618 46.3 323.618 47.1L322.568 43.8L341.468 37.05H345.218V48.75C347.418 45.15 350.768 42.15 355.268 39.75C359.868 37.25 364.968 36 370.568 36C378.868 36 385.218 37.85 389.618 41.55C394.018 45.25 396.218 50.2 396.218 56.4V99.45C396.218 101.05 396.968 102.25 398.468 103.05C399.968 103.85 401.918 104.25 404.318 104.25H407.018Z"/>
<path d="M452.746 104.1H457.096C462.996 104.1 465.946 102.3 465.946 98.7V12.45C465.946 8.85 462.996 7.05 457.096 7.05H452.746V3H493.696V7.05H489.346C486.446 7.05 484.246 7.5 482.746 8.4C481.346 9.2 480.646 10.55 480.646 12.45V95.85C480.646 99.95 483.646 102 489.646 102H517.996C522.096 102 525.197 99.6 527.297 94.8C529.497 90 530.896 85.1 531.496 80.1H535.696L533.146 108H452.746V104.1Z"/>
<path d="M557.248 69.3C557.148 70.1 557.098 71.3 557.098 72.9C557.098 82.3 559.298 89.85 563.698 95.55C568.198 101.25 574.098 104.1 581.398 104.1C587.998 104.1 593.448 102.4 597.748 99C602.048 95.5 604.848 90.15 606.148 82.95H610.498C609.698 90.95 606.698 97.4 601.498 102.3C596.298 107.1 588.998 109.5 579.598 109.5C567.998 109.5 558.948 106.35 552.448 100.05C546.048 93.65 542.848 84.55 542.848 72.75C542.848 61.35 546.048 52.4 552.448 45.9C558.948 39.3 567.848 36 579.148 36C589.548 36 597.448 38.8 602.848 44.4C608.348 49.9 611.098 57.05 611.098 65.85V69.3H557.248ZM579.598 41.7C573.698 41.7 568.898 43.65 565.198 47.55C561.498 51.45 559.048 56.75 557.848 63.45H598.648C598.448 57.85 596.798 52.85 593.698 48.45C590.698 43.95 585.998 41.7 579.598 41.7Z"/>
<path d="M619.149 138H621.999C624.399 138 626.349 137.6 627.849 136.8C629.349 136 630.099 134.8 630.099 133.2V49.05C630.099 47.95 629.749 47.15 629.049 46.65C628.449 46.15 627.749 45.9 626.949 45.9C626.149 45.9 624.649 46.3 622.449 47.1L621.399 43.8L640.299 37.05H644.049V48.6C646.949 44.1 650.599 40.9 654.999 39C659.399 37 664.049 36 668.949 36C678.749 36 686.449 39 692.049 45C697.649 51 700.449 59.65 700.449 70.95C700.449 84.45 697.449 94.25 691.449 100.35C685.549 106.45 676.899 109.5 665.499 109.5C660.799 109.5 656.449 108.5 652.449 106.5C648.449 104.5 645.649 102.05 644.049 99.15V133.05C644.049 134.65 644.799 135.85 646.299 136.65C647.799 137.55 649.699 138 651.999 138H654.549V141.75H619.149V138ZM664.599 103.8C672.299 103.8 677.849 100.95 681.249 95.25C684.749 89.45 686.499 81.6 686.499 71.7C686.499 61.8 684.699 54.4 681.099 49.5C677.499 44.5 671.899 42 664.299 42C661.399 42 658.349 42.9 655.149 44.7C652.049 46.4 649.399 48.85 647.199 52.05C645.099 55.15 644.049 58.75 644.049 62.85V83.85C644.049 89.45 645.849 94.2 649.449 98.1C653.149 101.9 658.199 103.8 664.599 103.8Z"/>
<path d="M725.315 23.85C722.715 23.85 720.615 23.1 719.015 21.6C717.515 20 716.765 18 716.765 15.6C716.765 13.1 717.515 11.1 719.015 9.60001C720.615 8.10001 722.715 7.35001 725.315 7.35001C727.815 7.35001 729.815 8.10001 731.315 9.60001C732.915 11.1 733.715 13.1 733.715 15.6C733.715 18 732.915 20 731.315 21.6C729.815 23.1 727.815 23.85 725.315 23.85ZM708.665 104.25H711.515C713.915 104.25 715.815 103.85 717.215 103.05C718.715 102.25 719.465 101.05 719.465 99.45V48.9C719.465 46.7 718.415 45.6 716.315 45.6C715.815 45.6 715.065 45.8 714.065 46.2C713.065 46.5 712.365 46.7 711.965 46.8L710.915 43.35L729.815 36.75H733.565V99.45C733.565 101.05 734.265 102.25 735.665 103.05C737.165 103.85 739.115 104.25 741.515 104.25H744.365V108H708.665V104.25Z"/>
<path d="M838.561 104.25V108H803.611V104.25H806.011C808.311 104.25 810.161 103.85 811.561 103.05C812.961 102.25 813.661 101.05 813.661 99.45V58.2C813.661 52.9 812.311 48.9 809.611 46.2C806.911 43.5 803.061 42.15 798.061 42.15C794.561 42.15 791.161 43.05 787.861 44.85C784.661 46.55 782.011 49.15 779.911 52.65C777.811 56.15 776.761 60.35 776.761 65.25V99.45C776.761 101.05 777.461 102.25 778.861 103.05C780.361 103.85 782.261 104.25 784.561 104.25H786.811V108H751.861V104.25H754.711C757.111 104.25 759.011 103.85 760.411 103.05C761.911 102.25 762.661 101.05 762.661 99.45V49.05C762.661 46.95 761.611 45.9 759.511 45.9C758.611 45.9 757.161 46.3 755.161 47.1L754.111 43.8L773.011 37.05H776.761V48.75C778.961 45.15 782.311 42.15 786.811 39.75C791.411 37.25 796.511 36 802.111 36C810.411 36 816.761 37.85 821.161 41.55C825.561 45.25 827.761 50.2 827.761 56.4V99.45C827.761 101.05 828.511 102.25 830.011 103.05C831.511 103.85 833.461 104.25 835.861 104.25H838.561Z"/>
<path d="M860.618 69.3C860.518 70.1 860.468 71.3 860.468 72.9C860.468 82.3 862.668 89.85 867.068 95.55C871.568 101.25 877.468 104.1 884.768 104.1C891.368 104.1 896.818 102.4 901.118 99C905.418 95.5 908.218 90.15 909.518 82.95H913.868C913.068 90.95 910.068 97.4 904.868 102.3C899.668 107.1 892.368 109.5 882.968 109.5C871.368 109.5 862.318 106.35 855.818 100.05C849.418 93.65 846.218 84.55 846.218 72.75C846.218 61.35 849.418 52.4 855.818 45.9C862.318 39.3 871.218 36 882.518 36C892.918 36 900.818 38.8 906.218 44.4C911.718 49.9 914.468 57.05 914.468 65.85V69.3H860.618ZM882.968 41.7C877.068 41.7 872.268 43.65 868.568 47.55C864.868 51.45 862.418 56.75 861.218 63.45H902.018C901.818 57.85 900.168 52.85 897.068 48.45C894.068 43.95 889.368 41.7 882.968 41.7Z"/>
</mask>
<path d="M4.09998 121.95C10.3 120.65 14.95 117.6 18.05 112.8C21.15 108.1 22.7 102 22.7 94.5V12.45C22.7 10.55 21.95 9.2 20.45 8.4C19.05 7.5 16.9 7.05 14 7.05H9.64998V3H50.6V7.05H46.1C40.3 7.05 37.4 8.85 37.4 12.45V94.65C37.4 104.45 34.45 111.95 28.55 117.15C22.65 122.45 14.7 125.1 4.69998 125.1L4.09998 121.95Z" stroke="black" stroke-width="6" mask="url(#path-1-outside-1_9_5)"/>
<path d="M134.918 104.1C136.318 104.1 138.118 103.7 140.318 102.9V105.45C137.218 108.15 132.968 109.5 127.568 109.5C124.568 109.5 122.118 108.7 120.218 107.1C118.418 105.4 117.518 102.95 117.518 99.75V96.75C115.318 100.35 111.918 103.4 107.318 105.9C102.818 108.3 97.7176 109.5 92.0176 109.5C83.7176 109.5 77.3676 107.7 72.9676 104.1C68.5676 100.4 66.3676 95.45 66.3676 89.25V49.05C66.3676 47.95 66.0676 47.15 65.4676 46.65C64.8676 46.15 64.1676 45.9 63.3676 45.9C62.3676 45.9 60.8676 46.3 58.8676 47.1L57.8176 43.8L76.5676 37.05H80.4676V87.45C80.4676 92.75 81.8176 96.75 84.5176 99.45C87.2176 102.15 91.0676 103.5 96.0676 103.5C99.5676 103.5 102.968 102.65 106.268 100.95C109.568 99.15 112.268 96.5 114.368 93C116.468 89.5 117.518 85.3 117.518 80.4V49.05C117.518 47.95 117.168 47.15 116.468 46.65C115.868 46.15 115.168 45.9 114.368 45.9C113.568 45.9 112.068 46.3 109.868 47.1L108.818 43.8L128.168 37.05H131.468V99.3C131.468 102.5 132.618 104.1 134.918 104.1Z" stroke="black" stroke-width="6" mask="url(#path-1-outside-1_9_5)"/>
<path d="M180.445 109.5C169.145 109.5 161.145 106.35 156.445 100.05L154.795 109.2H151.045V86.85H154.795C155.895 92.05 158.345 96.2 162.145 99.3C165.945 102.3 170.695 103.8 176.395 103.8C182.195 103.8 186.645 102.75 189.745 100.65C192.945 98.55 194.545 95.5 194.545 91.5C194.545 88.4 193.145 86 190.345 84.3C187.545 82.5 183.245 80.6 177.445 78.6C172.045 76.6 167.645 74.75 164.245 73.05C160.945 71.25 158.095 68.85 155.695 65.85C153.295 62.75 152.095 58.85 152.095 54.15C152.095 48.35 154.345 43.9 158.845 40.8C163.345 37.6 169.645 36 177.745 36C182.245 36 186.645 36.75 190.945 38.25C195.245 39.75 198.545 41.95 200.845 44.85L202.495 36H206.245V57.75H202.495C201.295 53.05 198.895 49.25 195.295 46.35C191.795 43.45 187.295 42 181.795 42C176.995 42 173.145 42.95 170.245 44.85C167.345 46.75 165.895 49.35 165.895 52.65C165.895 56.25 167.395 59.05 170.395 61.05C173.495 63.05 178.145 65.1 184.345 67.2C189.645 69.1 193.895 70.85 197.095 72.45C200.295 73.95 202.995 76.15 205.195 79.05C207.495 81.85 208.645 85.45 208.645 89.85C208.645 96.45 205.995 101.4 200.695 104.7C195.495 107.9 188.745 109.5 180.445 109.5Z" stroke="black" stroke-width="6" mask="url(#path-1-outside-1_9_5)"/>
<path d="M270.153 94.35C269.653 99.55 267.553 103.4 263.853 105.9C260.253 108.3 255.803 109.5 250.503 109.5C243.003 109.5 237.303 107.95 233.403 104.85C229.503 101.75 227.553 96.6 227.553 89.4V43.35H215.853V37.5H227.553V24.6L238.053 17.55H241.653V37.5H262.803V43.35H241.653V89.1C241.653 94.2 242.553 98 244.353 100.5C246.253 102.9 249.153 104.1 253.053 104.1C256.153 104.1 258.803 103.35 261.003 101.85C263.303 100.25 264.653 97.75 265.053 94.35H270.153Z" stroke="black" stroke-width="6" mask="url(#path-1-outside-1_9_5)"/>
<path d="M293.772 23.85C291.172 23.85 289.072 23.1 287.472 21.6C285.972 20 285.222 18 285.222 15.6C285.222 13.1 285.972 11.1 287.472 9.60001C289.072 8.10001 291.172 7.35001 293.772 7.35001C296.272 7.35001 298.272 8.10001 299.772 9.60001C301.372 11.1 302.172 13.1 302.172 15.6C302.172 18 301.372 20 299.772 21.6C298.272 23.1 296.272 23.85 293.772 23.85ZM277.122 104.25H279.972C282.372 104.25 284.272 103.85 285.672 103.05C287.172 102.25 287.922 101.05 287.922 99.45V48.9C287.922 46.7 286.872 45.6 284.772 45.6C284.272 45.6 283.522 45.8 282.522 46.2C281.522 46.5 280.822 46.7 280.422 46.8L279.372 43.35L298.272 36.75H302.022V99.45C302.022 101.05 302.722 102.25 304.122 103.05C305.622 103.85 307.572 104.25 309.972 104.25H312.822V108H277.122V104.25Z" stroke="black" stroke-width="6" mask="url(#path-1-outside-1_9_5)"/>
<path d="M407.018 104.25V108H372.068V104.25H374.468C376.768 104.25 378.618 103.85 380.018 103.05C381.418 102.25 382.118 101.05 382.118 99.45V58.2C382.118 52.9 380.768 48.9 378.068 46.2C375.368 43.5 371.518 42.15 366.518 42.15C363.018 42.15 359.618 43.05 356.318 44.85C353.118 46.55 350.468 49.15 348.368 52.65C346.268 56.15 345.218 60.35 345.218 65.25V99.45C345.218 101.05 345.918 102.25 347.318 103.05C348.818 103.85 350.718 104.25 353.018 104.25H355.268V108H320.318V104.25H323.168C325.568 104.25 327.468 103.85 328.868 103.05C330.368 102.25 331.118 101.05 331.118 99.45V49.05C331.118 46.95 330.068 45.9 327.968 45.9C327.068 45.9 325.618 46.3 323.618 47.1L322.568 43.8L341.468 37.05H345.218V48.75C347.418 45.15 350.768 42.15 355.268 39.75C359.868 37.25 364.968 36 370.568 36C378.868 36 385.218 37.85 389.618 41.55C394.018 45.25 396.218 50.2 396.218 56.4V99.45C396.218 101.05 396.968 102.25 398.468 103.05C399.968 103.85 401.918 104.25 404.318 104.25H407.018Z" stroke="black" stroke-width="6" mask="url(#path-1-outside-1_9_5)"/>
<path d="M452.746 104.1H457.096C462.996 104.1 465.946 102.3 465.946 98.7V12.45C465.946 8.85 462.996 7.05 457.096 7.05H452.746V3H493.696V7.05H489.346C486.446 7.05 484.246 7.5 482.746 8.4C481.346 9.2 480.646 10.55 480.646 12.45V95.85C480.646 99.95 483.646 102 489.646 102H517.996C522.096 102 525.197 99.6 527.297 94.8C529.497 90 530.896 85.1 531.496 80.1H535.696L533.146 108H452.746V104.1Z" stroke="black" stroke-width="6" mask="url(#path-1-outside-1_9_5)"/>
<path d="M557.248 69.3C557.148 70.1 557.098 71.3 557.098 72.9C557.098 82.3 559.298 89.85 563.698 95.55C568.198 101.25 574.098 104.1 581.398 104.1C587.998 104.1 593.448 102.4 597.748 99C602.048 95.5 604.848 90.15 606.148 82.95H610.498C609.698 90.95 606.698 97.4 601.498 102.3C596.298 107.1 588.998 109.5 579.598 109.5C567.998 109.5 558.948 106.35 552.448 100.05C546.048 93.65 542.848 84.55 542.848 72.75C542.848 61.35 546.048 52.4 552.448 45.9C558.948 39.3 567.848 36 579.148 36C589.548 36 597.448 38.8 602.848 44.4C608.348 49.9 611.098 57.05 611.098 65.85V69.3H557.248ZM579.598 41.7C573.698 41.7 568.898 43.65 565.198 47.55C561.498 51.45 559.048 56.75 557.848 63.45H598.648C598.448 57.85 596.798 52.85 593.698 48.45C590.698 43.95 585.998 41.7 579.598 41.7Z" stroke="black" stroke-width="6" mask="url(#path-1-outside-1_9_5)"/>
<path d="M619.149 138H621.999C624.399 138 626.349 137.6 627.849 136.8C629.349 136 630.099 134.8 630.099 133.2V49.05C630.099 47.95 629.749 47.15 629.049 46.65C628.449 46.15 627.749 45.9 626.949 45.9C626.149 45.9 624.649 46.3 622.449 47.1L621.399 43.8L640.299 37.05H644.049V48.6C646.949 44.1 650.599 40.9 654.999 39C659.399 37 664.049 36 668.949 36C678.749 36 686.449 39 692.049 45C697.649 51 700.449 59.65 700.449 70.95C700.449 84.45 697.449 94.25 691.449 100.35C685.549 106.45 676.899 109.5 665.499 109.5C660.799 109.5 656.449 108.5 652.449 106.5C648.449 104.5 645.649 102.05 644.049 99.15V133.05C644.049 134.65 644.799 135.85 646.299 136.65C647.799 137.55 649.699 138 651.999 138H654.549V141.75H619.149V138ZM664.599 103.8C672.299 103.8 677.849 100.95 681.249 95.25C684.749 89.45 686.499 81.6 686.499 71.7C686.499 61.8 684.699 54.4 681.099 49.5C677.499 44.5 671.899 42 664.299 42C661.399 42 658.349 42.9 655.149 44.7C652.049 46.4 649.399 48.85 647.199 52.05C645.099 55.15 644.049 58.75 644.049 62.85V83.85C644.049 89.45 645.849 94.2 649.449 98.1C653.149 101.9 658.199 103.8 664.599 103.8Z" stroke="black" stroke-width="6" mask="url(#path-1-outside-1_9_5)"/>
<path d="M725.315 23.85C722.715 23.85 720.615 23.1 719.015 21.6C717.515 20 716.765 18 716.765 15.6C716.765 13.1 717.515 11.1 719.015 9.60001C720.615 8.10001 722.715 7.35001 725.315 7.35001C727.815 7.35001 729.815 8.10001 731.315 9.60001C732.915 11.1 733.715 13.1 733.715 15.6C733.715 18 732.915 20 731.315 21.6C729.815 23.1 727.815 23.85 725.315 23.85ZM708.665 104.25H711.515C713.915 104.25 715.815 103.85 717.215 103.05C718.715 102.25 719.465 101.05 719.465 99.45V48.9C719.465 46.7 718.415 45.6 716.315 45.6C715.815 45.6 715.065 45.8 714.065 46.2C713.065 46.5 712.365 46.7 711.965 46.8L710.915 43.35L729.815 36.75H733.565V99.45C733.565 101.05 734.265 102.25 735.665 103.05C737.165 103.85 739.115 104.25 741.515 104.25H744.365V108H708.665V104.25Z" stroke="black" stroke-width="6" mask="url(#path-1-outside-1_9_5)"/>
<path d="M838.561 104.25V108H803.611V104.25H806.011C808.311 104.25 810.161 103.85 811.561 103.05C812.961 102.25 813.661 101.05 813.661 99.45V58.2C813.661 52.9 812.311 48.9 809.611 46.2C806.911 43.5 803.061 42.15 798.061 42.15C794.561 42.15 791.161 43.05 787.861 44.85C784.661 46.55 782.011 49.15 779.911 52.65C777.811 56.15 776.761 60.35 776.761 65.25V99.45C776.761 101.05 777.461 102.25 778.861 103.05C780.361 103.85 782.261 104.25 784.561 104.25H786.811V108H751.861V104.25H754.711C757.111 104.25 759.011 103.85 760.411 103.05C761.911 102.25 762.661 101.05 762.661 99.45V49.05C762.661 46.95 761.611 45.9 759.511 45.9C758.611 45.9 757.161 46.3 755.161 47.1L754.111 43.8L773.011 37.05H776.761V48.75C778.961 45.15 782.311 42.15 786.811 39.75C791.411 37.25 796.511 36 802.111 36C810.411 36 816.761 37.85 821.161 41.55C825.561 45.25 827.761 50.2 827.761 56.4V99.45C827.761 101.05 828.511 102.25 830.011 103.05C831.511 103.85 833.461 104.25 835.861 104.25H838.561Z" stroke="black" stroke-width="6" mask="url(#path-1-outside-1_9_5)"/>
<path d="M860.618 69.3C860.518 70.1 860.468 71.3 860.468 72.9C860.468 82.3 862.668 89.85 867.068 95.55C871.568 101.25 877.468 104.1 884.768 104.1C891.368 104.1 896.818 102.4 901.118 99C905.418 95.5 908.218 90.15 909.518 82.95H913.868C913.068 90.95 910.068 97.4 904.868 102.3C899.668 107.1 892.368 109.5 882.968 109.5C871.368 109.5 862.318 106.35 855.818 100.05C849.418 93.65 846.218 84.55 846.218 72.75C846.218 61.35 849.418 52.4 855.818 45.9C862.318 39.3 871.218 36 882.518 36C892.918 36 900.818 38.8 906.218 44.4C911.718 49.9 914.468 57.05 914.468 65.85V69.3H860.618ZM882.968 41.7C877.068 41.7 872.268 43.65 868.568 47.55C864.868 51.45 862.418 56.75 861.218 63.45H902.018C901.818 57.85 900.168 52.85 897.068 48.45C894.068 43.95 889.368 41.7 882.968 41.7Z" stroke="black" stroke-width="6" mask="url(#path-1-outside-1_9_5)"/>
</svg>
